<?xml version="1.0" standalone="no"?><!DOCTYPE svg PUBLIC "-//W3C//DTD SVG 1.1//EN" "http://www.w3.org/Graphics/SVG/1.1/DTD/svg11.dtd"><svg height="1024" node-id="1" sillyvg="true" template-height="1024" template-width="1024" version="1.1" viewBox="0 0 1024 1024" width="1024" xmlns="http://www.w3.org/2000/svg" xmlns:xlink="http://www.w3.org/1999/xlink"><defs node-id="381"><linearGradient gradientUnits="objectBoundingBox" id="SVGID_00000108299110358236435940000009635554270368728488_" node-id="97" spreadMethod="pad" x1="506.2922" x2="506.2922" y1="935.691" y2="52.4064"><stop offset="0" stop-color="#f29d0b"></stop><stop offset="0.5307" stop-color="#fef3a7"></stop><stop offset="1" stop-color="#fde48a"></stop></linearGradient><linearGradient gradientUnits="objectBoundingBox" id="SVGID_00000129195872844829343740000002990115237567909560_" node-id="102" spreadMethod="pad" x1="895.9599" x2="895.9599" y1="397.8011" y2="586.0039"><stop offset="0" stop-color="#97e6fc"></stop><stop offset="1" stop-color="#00bcf2"></stop></linearGradient></defs><path d="M 947.93 512.00 C 947.93 629.13 901.40 741.46 818.58 824.29 C 735.75 907.11 623.42 953.64 506.29 953.64 C 389.16 953.64 276.83 907.11 194.00 824.29 C 111.18 741.46 64.65 629.13 64.65 512.00 C 64.65 394.87 111.18 282.54 194.00 199.71 C 276.83 116.89 389.16 70.36 506.29 70.36 C 623.42 70.36 735.75 116.89 818.58 199.71 C 901.40 282.54 947.93 394.87 947.93 512.00 Z" fill="url(#SVGID_00000108299110358236435940000009635554270368728488_)" fill-rule="nonzero" node-id="399" stroke="none" target-height="883.27997" target-width="883.28" target-x="64.649994" target-y="70.35998"></path><path d="M 905.17 402.88 C 900.87 396.11 891.06 396.11 886.76 402.88 C 869.18 430.54 832.58 492.43 832.58 528.03 C 832.58 560.12 854.31 586.01 895.97 586.01 C 937.63 586.01 959.36 560.13 959.36 528.03 C 959.35 492.43 922.74 430.54 905.17 402.88 Z" fill="url(#SVGID_00000129195872844829343740000002990115237567909560_)" fill-rule="nonzero" node-id="401" stroke="none" target-height="189.90002" target-width="126.77997" target-x="832.58" target-y="396.11"></path><path d="M 443.20 690.70 L 569.38 690.70" fill="none" node-id="403" stroke="#682b00" stroke-linecap="round" stroke-width="30" target-height="0" target-width="126.17999" target-x="443.2" target-y="690.7"></path><path d="M 929.35 692.57 C 926.27 684.99 922.80 676.46 918.86 666.75 C 922.37 595.33 920.82 557.06 893.89 557.06 C 866.96 557.06 858.76 614.85 858.76 614.85 C 858.76 614.85 858.28 580.09 806.77 544.97 C 755.26 509.85 721.16 539.61 700.01 560.67 C 667.54 593.00 669.04 621.35 708.91 676.19 C 740.91 720.22 774.47 732.71 793.59 737.00 C 809.36 753.70 842.48 806.67 855.59 828.01 C 888.08 788.33 913.30 742.51 929.35 692.57 Z" fill="#fec44a" fill-rule="nonzero" node-id="405" stroke="#e9a922" stroke-linecap="butt" stroke-width="6" target-height="318.16" target-width="261.81" target-x="667.54" target-y="509.85"></path><g node-id="420"><path d="M 305.35 446.82 C 373.21 446.82 428.22 388.63 428.22 316.86 L 182.48 316.86 C 182.48 388.63 237.49 446.82 305.35 446.82 Z" fill="#ffffff" fill-rule="nonzero" group-id="1" node-id="409" stroke="none" target-height="129.96005" target-width="245.74" target-x="182.48" target-y="316.86"></path><path d="M 360.68 388.28 C 397.98 388.28 428.21 356.30 428.21 316.85 L 293.15 316.85 C 293.15 356.30 323.39 388.28 360.68 388.28 Z" fill="#2d1d01" fill-rule="nonzero" group-id="1" node-id="411" stroke="none" target-height="71.42999" target-width="135.05997" target-x="293.15" target-y="316.85"></path></g><g node-id="421"><path d="M 707.24 446.82 C 639.38 446.82 584.37 388.63 584.37 316.86 L 830.11 316.86 C 830.11 388.63 775.09 446.82 707.24 446.82 Z" fill="#ffffff" fill-rule="nonzero" group-id="2" node-id="416" stroke="none" target-height="129.96005" target-width="245.74005" target-x="584.37" target-y="316.86"></path><path d="M 762.57 388.28 C 725.27 388.28 695.04 356.30 695.04 316.85 L 830.11 316.85 C 830.11 356.30 799.87 388.28 762.57 388.28 Z" fill="#2d1d01" fill-rule="nonzero" group-id="2" node-id="418" stroke="none" target-height="71.42999" target-width="135.07007" target-x="695.04" target-y="316.85"></path></g></svg>