<?xml version="1.0" standalone="no"?><!DOCTYPE svg PUBLIC "-//W3C//DTD SVG 1.1//EN" "http://www.w3.org/Graphics/SVG/1.1/DTD/svg11.dtd"><svg height="1024" node-id="1" sillyvg="true" template-height="1024" template-width="1024" version="1.1" viewBox="0 0 1024 1024" width="1024" xmlns="http://www.w3.org/2000/svg" xmlns:xlink="http://www.w3.org/1999/xlink"><defs node-id="36"><linearGradient gradientUnits="objectBoundingBox" id="SVGID_1_" node-id="5" spreadMethod="pad" x1="511.7805" x2="511.7805" y1="935.6868" y2="52.407"><stop offset="0" stop-color="#f29d0b"></stop><stop offset="0.5307" stop-color="#fef3a7"></stop><stop offset="1" stop-color="#fde48a"></stop></linearGradient><linearGradient gradientUnits="objectBoundingBox" id="SVGID_00000076594231561698690600000002807440356823019194_" node-id="13" spreadMethod="pad" x1="278.4997" x2="281.3411" y1="373.3423" y2="900.0751"><stop offset="0" stop-color="#5ad5f8"></stop><stop offset="0.316" stop-color="#97e6fc"></stop><stop offset="0.9888" stop-color="#00bcf2"></stop></linearGradient><linearGradient gradientUnits="objectBoundingBox" id="SVGID_00000181803302979900734570000000490225919518777244_" node-id="19" spreadMethod="pad" x1="-494.5982" x2="-489.3888" y1="215.5252" y2="245.0694"><stop offset="0.3547" stop-color="#646464"></stop><stop offset="0.7374" stop-color="#2d1d01"></stop></linearGradient><linearGradient gradientUnits="objectBoundingBox" id="SVGID_00000025403527173735257510000004708092431579727248_" node-id="24" spreadMethod="pad" x1="743.5604" x2="746.3927" y1="373.8073" y2="898.8808"><stop offset="0" stop-color="#5ad5f8"></stop><stop offset="0.316" stop-color="#97e6fc"></stop><stop offset="0.9888" stop-color="#00bcf2"></stop></linearGradient><linearGradient gradientUnits="objectBoundingBox" id="SVGID_00000063608000329961209780000016457629853304000899_" node-id="30" spreadMethod="pad" x1="-304.8629" x2="-299.6534" y1="181.5278" y2="211.072"><stop offset="0.3547" stop-color="#646464"></stop><stop offset="0.7374" stop-color="#2d1d01"></stop></linearGradient></defs><path d="M 953.42 512.00 C 953.42 639.54 899.35 754.46 812.89 835.08 C 773.63 871.69 727.68 901.23 677.08 921.66 C 626.02 942.29 570.22 953.64 511.78 953.64 C 453.76 953.64 398.35 942.45 347.60 922.11 C 297.04 901.86 251.10 872.52 211.79 836.12 C 124.68 755.45 70.14 640.09 70.14 512.00 C 70.14 268.09 267.87 70.36 511.78 70.36 C 755.69 70.36 953.42 268.09 953.42 512.00 Z" fill="url(#SVGID_1_)" fill-rule="nonzero" node-id="77" stroke="none" target-height="883.27997" target-width="883.28" target-x="70.14" target-y="70.36"></path><path d="M 953.42 512.00 C 953.42 629.13 906.89 741.46 824.07 824.29 C 741.24 907.11 628.91 953.64 511.78 953.64 C 394.65 953.64 282.32 907.11 199.49 824.29 C 116.67 741.46 70.14 629.13 70.14 512.00 C 70.14 394.87 116.67 282.54 199.49 199.71 C 282.32 116.89 394.65 70.36 511.78 70.36 C 628.91 70.36 741.24 116.89 824.07 199.71 C 906.89 282.54 953.42 394.87 953.42 512.00 Z" fill="none" node-id="79" stroke="none" target-height="883.27997" target-width="883.28" target-x="70.139984" target-y="70.35998"></path><path d="M 953.86 512.00 C 953.86 629.13 907.33 741.46 824.51 824.29 C 741.68 907.11 629.35 953.64 512.22 953.64 C 395.09 953.64 282.76 907.11 199.93 824.29 C 117.11 741.46 70.58 629.13 70.58 512.00 C 70.58 394.87 117.11 282.54 199.93 199.71 C 282.76 116.89 395.09 70.36 512.22 70.36 C 629.35 70.36 741.68 116.89 824.51 199.71 C 907.33 282.54 953.86 394.87 953.86 512.00 Z" fill="none" node-id="81" stroke="none" target-height="883.27997" target-width="883.28" target-x="70.579956" target-y="70.359985"></path><g node-id="105"><path d="M 347.60 353.84 L 347.60 922.15 C 297.04 901.90 251.10 872.56 211.79 836.16 L 211.79 353.84 L 347.60 353.84 Z" fill="url(#SVGID_00000076594231561698690600000002807440356823019194_)" fill-rule="nonzero" group-id="1" node-id="85" stroke="none" target-height="568.31006" target-width="135.81001" target-x="211.79" target-y="353.84"></path><g node-id="107"><path d="M 349.10 363.10 L 210.30 363.10 C 202.02 363.10 195.30 356.38 195.30 348.10 C 195.30 339.82 202.02 333.10 210.30 333.10 L 349.10 333.10 C 357.38 333.10 364.10 339.82 364.10 348.10 C 364.10 356.38 357.38 363.10 349.10 363.10 Z" fill="url(#SVGID_00000181803302979900734570000000490225919518777244_)" fill-rule="nonzero" group-id="1,3" node-id="89" stroke="none" target-height="30" target-width="168.8" target-x="195.3" target-y="333.1"></path></g></g><g node-id="106"><path d="M 812.89 354.37 L 812.89 835.04 C 773.63 871.65 727.68 901.19 677.08 921.62 L 677.08 354.37 L 812.89 354.37 Z" fill="url(#SVGID_00000025403527173735257510000004708092431579727248_)" fill-rule="nonzero" group-id="2" node-id="95" stroke="none" target-height="567.25" target-width="135.81" target-x="677.08" target-y="354.37"></path><g node-id="108"><path d="M 814.39 363.63 L 675.59 363.63 C 667.31 363.63 660.59 356.91 660.59 348.63 C 660.59 340.35 667.31 333.63 675.59 333.63 L 814.39 333.63 C 822.67 333.63 829.39 340.35 829.39 348.63 C 829.39 356.91 822.68 363.63 814.39 363.63 Z" fill="url(#SVGID_00000063608000329961209780000016457629853304000899_)" fill-rule="nonzero" group-id="2,4" node-id="99" stroke="none" target-height="30" target-width="168.79999" target-x="660.59" target-y="333.63"></path></g></g><path d="M 439.91 478.38 C 454.35 439.42 481.12 413.25 511.76 413.25 C 542.42 413.25 569.21 439.45 583.65 478.46" fill="none" node-id="103" stroke="#682b00" stroke-linecap="round" stroke-width="30" target-height="65.20999" target-width="143.74002" target-x="439.91" target-y="413.25"></path></svg>