<?xml version="1.0" standalone="no"?><!DOCTYPE svg PUBLIC "-//W3C//DTD SVG 1.1//EN" "http://www.w3.org/Graphics/SVG/1.1/DTD/svg11.dtd"><svg height="1024" node-id="1" sillyvg="true" template-height="1024" template-width="1024" version="1.1" viewBox="0 0 1024 1024" width="1024" xmlns="http://www.w3.org/2000/svg" xmlns:xlink="http://www.w3.org/1999/xlink"><defs node-id="381"><linearGradient gradientUnits="objectBoundingBox" id="SVGID_00000016789763138780611990000003516889608789027735_" node-id="76" spreadMethod="pad" x1="731.6896" x2="731.6896" y1="935.6912" y2="52.4063"><stop offset="0" stop-color="#f29d0b"></stop><stop offset="0.5307" stop-color="#fef3a7"></stop><stop offset="1" stop-color="#fde48a"></stop></linearGradient><linearGradient gradientUnits="objectBoundingBox" id="SVGID_00000099647064839631119480000000442883813845098127_" node-id="81" spreadMethod="pad" x1="295.431" x2="295.431" y1="935.6912" y2="52.4063"><stop offset="0" stop-color="#f29d0b"></stop><stop offset="0.5307" stop-color="#fef3a7"></stop><stop offset="1" stop-color="#fde48a"></stop></linearGradient></defs><g node-id="429"><path d="M 567.95 74.01 C 566.44 87.11 565.20 100.67 564.44 114.95 C 561.77 165.14 550.02 257.78 575.14 259.31 C 603.96 261.06 615.07 280.07 604.81 335.80 C 593.09 399.48 603.69 430.85 592.75 495.06 C 589.05 516.79 593.29 549.94 598.50 564.33 C 611.49 600.14 604.84 630.42 596.90 658.41 C 568.70 757.82 539.10 855.57 509.73 953.58 C 510.49 953.58 511.23 953.64 511.99 953.64 C 755.90 953.64 953.63 755.91 953.63 512.00 C 953.64 287.05 785.43 101.52 567.95 74.01 Z" fill="url(#SVGID_00000016789763138780611990000003516889608789027735_)" fill-rule="nonzero" group-id="1" node-id="403" stroke="none" target-height="879.62994" target-width="443.90994" target-x="509.73" target-y="74.01"></path><path d="M 518.89 707.48 C 523.47 663.50 518.90 649.56 497.61 645.82 C 473.36 641.56 470.23 633.44 477.83 584.53 C 488.11 518.33 475.99 484.22 486.33 418.05 C 495.82 357.35 484.20 347.61 454.27 346.38 C 428.91 345.34 413.53 320.55 415.64 268.84 C 417.15 231.85 433.62 123.98 438.18 76.61 C 229.43 111.77 70.36 293.26 70.36 512.00 C 70.36 750.06 258.74 944.03 494.56 953.20 C 494.72 948.77 494.95 944.73 495.34 940.79 C 503.00 862.94 510.80 785.15 518.89 707.48 Z" fill="url(#SVGID_00000099647064839631119480000000442883813845098127_)" fill-rule="nonzero" group-id="1" node-id="405" stroke="none" target-height="876.59" target-width="453.11" target-x="70.36" target-y="76.61"></path><path d="M 598.51 564.33 C 593.29 549.94 589.05 516.79 592.76 495.06 C 603.70 430.85 593.10 399.48 604.82 335.80 C 615.07 280.07 603.96 261.06 575.15 259.31 C 550.03 257.78 561.78 165.14 564.45 114.95 C 565.21 100.67 566.45 87.11 567.96 74.01 C 549.62 71.69 530.98 70.36 512.01 70.36 C 486.84 70.36 462.20 72.58 438.19 76.62 C 433.63 123.99 417.16 231.86 415.65 268.85 C 413.54 320.56 428.91 345.35 454.28 346.39 C 484.21 347.62 495.83 357.36 486.34 418.06 C 476.00 484.23 488.12 518.33 477.84 584.54 C 470.24 633.45 473.37 641.57 497.62 645.83 C 518.91 649.57 523.48 663.51 518.90 707.49 C 510.81 785.16 503.01 862.96 495.34 940.80 C 494.95 944.74 494.73 948.78 494.56 953.21 C 499.60 953.40 504.66 953.57 509.74 953.59 C 539.11 855.58 568.71 757.83 596.91 658.42 C 604.84 630.43 611.50 600.15 598.51 564.33 Z" fill="#ffffff" fill-rule="nonzero" group-id="1" node-id="407" stroke="none" target-height="883.23004" target-width="201.52997" target-x="413.54004" target-y="70.36"></path></g><path d="M 723.19 674.09 C 670.38 746.09 595.33 791.07 512.07 791.07 C 428.74 791.07 353.63 746.02 300.82 673.91" fill="none" node-id="410" stroke="#682b00" stroke-linecap="round" stroke-width="4" target-height="117.160034" target-width="422.37" target-x="300.82" target-y="673.91"></path><path d="M 723.19 674.09 C 670.38 746.09 595.33 791.07 512.07 791.07 C 428.74 791.07 353.63 746.02 300.82 673.91" fill="none" node-id="412" stroke="#682b00" stroke-linecap="round" stroke-width="30" target-height="117.160034" target-width="422.37" target-x="300.82" target-y="673.91"></path><path d="M 598.51 564.33 C 593.29 549.94 589.05 516.79 592.76 495.06 C 603.70 430.85 593.10 399.48 604.82 335.80 C 615.07 280.07 603.96 261.06 575.15 259.31 C 550.03 257.78 561.78 165.14 564.45 114.95 C 565.21 100.67 566.45 87.11 567.96 74.01 C 549.62 71.69 530.98 70.36 512.01 70.36 C 486.84 70.36 462.20 72.58 438.19 76.62 C 433.63 123.99 417.16 231.86 415.65 268.85 C 413.54 320.56 428.91 345.35 454.28 346.39 C 484.21 347.62 495.83 357.36 486.34 418.06 C 476.00 484.23 488.12 518.33 477.84 584.54 C 470.24 633.45 473.37 641.57 497.62 645.83 C 518.91 649.57 523.48 663.51 518.90 707.49 C 510.81 785.16 503.01 862.96 495.34 940.80 C 494.95 944.74 494.73 948.78 494.56 953.21 C 499.60 953.40 504.66 953.57 509.74 953.59 C 539.11 855.58 568.71 757.83 596.91 658.42 C 604.84 630.43 611.50 600.15 598.51 564.33 Z" fill="#ffffff" fill-rule="nonzero" node-id="414" stroke="none" target-height="883.23004" target-width="201.52997" target-x="413.54004" target-y="70.36"></path><g node-id="430"><path d="M 809.96 372.99 C 809.96 442.68 767.59 499.17 715.32 499.17 C 663.05 499.17 620.68 442.68 620.68 372.99 C 620.68 303.30 663.05 246.81 715.32 246.81 C 767.59 246.81 809.96 303.30 809.96 372.99 Z" fill="#ffffff" fill-rule="nonzero" group-id="2" node-id="418" stroke="none" target-height="252.36" target-width="189.28003" target-x="620.68" target-y="246.80998"></path><path d="M 791.24 421.81 C 791.24 463.74 757.25 497.73 715.32 497.73 C 673.39 497.73 639.40 463.74 639.40 421.81 C 639.40 379.88 673.39 345.89 715.32 345.89 C 757.25 345.89 791.24 379.88 791.24 421.81 Z" fill="#2d1d01" fill-rule="nonzero" group-id="2" node-id="420" stroke="none" target-height="151.84" target-width="151.83997" target-x="639.4" target-y="345.88998"></path></g><g node-id="431"><path d="M 403.19 372.99 C 403.19 442.68 360.82 499.17 308.55 499.17 C 256.28 499.17 213.91 442.68 213.91 372.99 C 213.91 303.30 256.28 246.81 308.55 246.81 C 360.82 246.81 403.19 303.30 403.19 372.99 Z" fill="#ffffff" fill-rule="nonzero" group-id="3" node-id="425" stroke="none" target-height="252.36" target-width="189.28001" target-x="213.90999" target-y="246.80998"></path><path d="M 384.47 421.81 C 384.47 463.74 350.48 497.73 308.55 497.73 C 266.62 497.73 232.63 463.74 232.63 421.81 C 232.63 379.88 266.62 345.89 308.55 345.89 C 350.48 345.89 384.47 379.88 384.47 421.81 Z" fill="#2d1d01" fill-rule="nonzero" group-id="3" node-id="427" stroke="none" target-height="151.84" target-width="151.83998" target-x="232.62999" target-y="345.88998"></path></g></svg>