<?xml version="1.0" standalone="no"?><!DOCTYPE svg PUBLIC "-//W3C//DTD SVG 1.1//EN" "http://www.w3.org/Graphics/SVG/1.1/DTD/svg11.dtd"><svg height="1024" node-id="1" sillyvg="true" template-height="1024" template-width="1024" version="1.1" viewBox="0 0 1024 1024" width="1024" xmlns="http://www.w3.org/2000/svg" xmlns:xlink="http://www.w3.org/1999/xlink"><defs node-id="381"><linearGradient gradientUnits="objectBoundingBox" id="SVGID_00000124874380450135038840000005931008480310973863_" node-id="228" spreadMethod="pad" x1="512" x2="512" y1="935.691" y2="52.4064"><stop offset="0" stop-color="#f29d0b"></stop><stop offset="0.5307" stop-color="#fef3a7"></stop><stop offset="1" stop-color="#fde48a"></stop></linearGradient><linearGradient gradientUnits="objectBoundingBox" id="SVGID_00000060717583682479868140000003785348888114717338_" node-id="234" spreadMethod="pad" x1="96.1705" x2="-53.2689" y1="418.5757" y2="418.5757"><stop offset="0" stop-color="#646464"></stop><stop offset="1" stop-color="#2d1d01"></stop></linearGradient><linearGradient gradientUnits="objectBoundingBox" id="SVGID_00000052069315468981638710000014191146628614467213_" node-id="238" spreadMethod="pad" x1="132.9704" x2="-16.9527" y1="519.3817" y2="605.9398"><stop offset="0" stop-color="#646464"></stop><stop offset="1" stop-color="#2d1d01"></stop></linearGradient><linearGradient gradientUnits="objectBoundingBox" id="SVGID_00000092440657523321141360000012932959478238352296_" node-id="244" spreadMethod="pad" x1="512" x2="512" y1="604.7741" y2="786.9501"><stop offset="0" stop-color="#ff7b69"></stop><stop offset="0.9892" stop-color="#d4341f"></stop></linearGradient></defs><path d="M 953.64 512.00 C 953.64 629.13 907.11 741.46 824.29 824.29 C 741.46 907.11 629.13 953.64 512.00 953.64 C 394.87 953.64 282.54 907.11 199.71 824.29 C 116.89 741.46 70.36 629.13 70.36 512.00 C 70.36 394.87 116.89 282.54 199.71 199.71 C 282.54 116.89 394.87 70.36 512.00 70.36 C 629.13 70.36 741.46 116.89 824.29 199.71 C 907.11 282.54 953.64 394.87 953.64 512.00 Z" fill="url(#SVGID_00000124874380450135038840000005931008480310973863_)" fill-rule="nonzero" node-id="411" stroke="none" target-height="883.27997" target-width="883.27997" target-x="70.359985" target-y="70.359985"></path><g node-id="428"><path d="M 643.36 394.06 C 670.48 353.51 713.13 324.22 762.80 314.70" fill="none" group-id="1" node-id="415" stroke="url(#SVGID_00000060717583682479868140000003785348888114717338_)" stroke-linecap="round" stroke-width="30" target-height="79.359955" target-width="119.44" target-x="643.36" target-y="314.7"></path><path d="M 643.36 394.06 C 687.12 372.50 738.70 368.46 786.48 385.05" fill="none" group-id="1" node-id="417" stroke="url(#SVGID_00000052069315468981638710000014191146628614467213_)" stroke-linecap="round" stroke-width="30" target-height="25.599976" target-width="143.12" target-x="643.36" target-y="368.46"></path></g><path d="M 427.53 355.42 C 427.53 425.11 385.16 481.60 332.89 481.60 C 280.62 481.60 238.25 425.11 238.25 355.42 C 238.25 285.73 280.62 229.24 332.89 229.24 C 385.16 229.24 427.53 285.73 427.53 355.42 Z" fill="#ffffff" fill-rule="nonzero" node-id="420" stroke="none" target-height="252.36" target-width="189.28" target-x="238.25003" target-y="229.24"></path><path d="M 408.60 405.89 C 408.60 447.70 374.70 481.60 332.89 481.60 C 291.08 481.60 257.18 447.70 257.18 405.89 C 257.18 364.08 291.08 330.18 332.89 330.18 C 374.70 330.18 408.60 364.08 408.60 405.89 Z" fill="#2d1d01" fill-rule="nonzero" node-id="422" stroke="none" target-height="151.41998" target-width="151.41998" target-x="257.18002" target-y="330.18002"></path><path d="M 406.10 602.00 L 406.10 689.45 C 406.10 747.69 453.75 795.35 512.00 795.35 C 570.24 795.35 617.90 747.70 617.90 689.45 L 617.90 602.00 L 406.10 602.00 Z" fill="url(#SVGID_00000092440657523321141360000012932959478238352296_)" fill-rule="nonzero" node-id="424" stroke="none" target-height="193.34998" target-width="211.80002" target-x="406.1" target-y="602"></path><path d="M 398.43 599.04 L 625.57 599.04" fill="none" node-id="426" stroke="#682b00" stroke-linecap="round" stroke-width="30" target-height="0" target-width="227.14001" target-x="398.43" target-y="599.04"></path></svg>