<?xml version="1.0" standalone="no"?><!DOCTYPE svg PUBLIC "-//W3C//DTD SVG 1.1//EN" "http://www.w3.org/Graphics/SVG/1.1/DTD/svg11.dtd"><svg height="1024" node-id="1" sillyvg="true" template-height="1024" template-width="1024" version="1.1" viewBox="0 0 1024 1024" width="1024" xmlns="http://www.w3.org/2000/svg" xmlns:xlink="http://www.w3.org/1999/xlink"><defs node-id="381"><linearGradient gradientUnits="objectBoundingBox" id="SVGID_00000017478871542630586350000017624628766225366420_" node-id="115" spreadMethod="pad" x1="512" x2="512" y1="935.691" y2="52.4064"><stop offset="0" stop-color="#f29d0b"></stop><stop offset="0.5307" stop-color="#fef3a7"></stop><stop offset="1" stop-color="#fde48a"></stop></linearGradient><linearGradient gradientUnits="objectBoundingBox" id="SVGID_00000020360599463677543750000003194599331563345310_" node-id="120" spreadMethod="pad" x1="584.0924" x2="806.2012" y1="369.0945" y2="369.0945"><stop offset="0" stop-color="#2d1d01"></stop><stop offset="1" stop-color="#646464"></stop></linearGradient><linearGradient gradientUnits="objectBoundingBox" id="SVGID_00000039856156055342672970000002781111503738612096_" node-id="124" spreadMethod="pad" x1="2261.3948" x2="2483.5034" y1="369.0945" y2="369.0945"><stop offset="0" stop-color="#2d1d01"></stop><stop offset="1" stop-color="#646464"></stop></linearGradient><linearGradient gradientUnits="objectBoundingBox" id="SVGID_00000124858480334495634000000008930979169929092543_" node-id="128" spreadMethod="pad" x1="308.1194" x2="715.8826" y1="715.9805" y2="715.9805"><stop offset="0" stop-color="#5c351e"></stop><stop offset="1" stop-color="#291509"></stop></linearGradient><linearGradient gradientUnits="objectBoundingBox" id="SVGID_00000065769837351116517650000017129192935227578242_" node-id="132" spreadMethod="pad" x1="511.1902" x2="511.1902" y1="783.4116" y2="726.1831"><stop offset="0" stop-color="#e05e65"></stop><stop offset="1" stop-color="#c5272d"></stop></linearGradient></defs><path d="M 953.64 512.00 C 953.64 629.13 907.11 741.46 824.29 824.29 C 741.46 907.11 629.13 953.64 512.00 953.64 C 394.87 953.64 282.54 907.11 199.71 824.29 C 116.89 741.46 70.36 629.13 70.36 512.00 C 70.36 394.87 116.89 282.54 199.71 199.71 C 282.54 116.89 394.87 70.36 512.00 70.36 C 629.13 70.36 741.46 116.89 824.29 199.71 C 907.11 282.54 953.64 394.87 953.64 512.00 Z" fill="url(#SVGID_00000017478871542630586350000017624628766225366420_)" fill-rule="nonzero" node-id="417" stroke="none" target-height="883.27997" target-width="883.27997" target-x="70.359985" target-y="70.359985"></path><path d="M 791.20 419.99 C 750.29 467.66 678.49 473.13 630.82 432.22 C 592.69 399.49 588.31 342.05 621.03 303.92 C 647.21 273.41 693.17 269.91 723.67 296.09 C 748.07 317.04 750.88 353.80 729.93 378.20 C 713.17 397.72 683.76 399.97 664.24 383.21 C 648.62 369.81 646.83 346.28 660.23 330.66 C 670.95 318.16 689.78 316.73 702.27 327.45" fill="none" node-id="419" stroke="url(#SVGID_00000020360599463677543750000003194599331563345310_)" stroke-linecap="round" stroke-width="30" target-height="203.22003" target-width="202.89001" target-x="588.31" target-y="269.91"></path><path d="M 236.65 419.99 C 277.56 467.66 349.36 473.13 397.03 432.22 C 435.16 399.49 439.54 342.05 406.82 303.92 C 380.64 273.41 334.68 269.91 304.18 296.09 C 279.78 317.04 276.97 353.80 297.92 378.20 C 314.68 397.72 344.09 399.97 363.61 383.21 C 379.23 369.81 381.02 346.28 367.62 330.66 C 356.90 318.16 338.07 316.73 325.58 327.45" fill="none" node-id="421" stroke="url(#SVGID_00000039856156055342672970000002781111503738612096_)" stroke-linecap="round" stroke-width="30" target-height="203.22003" target-width="202.89003" target-x="236.64998" target-y="269.91"></path><path d="M 709.20 752.10 C 704.12 763.65 696.18 772.86 685.55 777.32 C 636.91 797.72 546.18 768.17 512.00 772.25 C 477.82 768.17 387.09 797.72 338.45 777.32 C 326.61 772.35 318.12 761.50 313.18 748.08 C 297.85 706.37 316.89 639.85 376.57 648.08 C 421.37 654.26 458.95 666.41 483.08 675.76 C 501.71 682.98 522.29 682.98 540.92 675.76 C 565.05 666.41 602.63 654.26 647.42 648.08 C 709.07 639.58 727.36 710.81 709.20 752.10 Z" fill="url(#SVGID_00000124858480334495634000000008930979169929092543_)" fill-rule="nonzero" node-id="423" stroke="none" target-height="158.14001" target-width="429.50998" target-x="297.85" target-y="639.58"></path><path d="M 709.20 752.10 C 704.12 763.65 696.18 772.86 685.55 777.32 C 636.91 797.72 546.18 768.17 512.00 772.25 C 477.82 768.17 387.09 797.72 338.45 777.32 C 326.61 772.35 318.12 761.50 313.18 748.08 C 343.75 736.04 386.89 724.52 435.10 727.96 C 461.60 729.86 485.50 737.17 506.32 746.57 C 527.14 737.17 551.03 729.86 577.54 727.96 C 631.12 724.14 678.43 738.80 709.20 752.10 Z" fill="url(#SVGID_00000065769837351116517650000017129192935227578242_)" fill-rule="nonzero" node-id="425" stroke="none" target-height="73.58002" target-width="396.02002" target-x="313.18" target-y="724.14"></path><path d="M 647.42 648.09 C 602.63 654.27 565.04 666.42 540.92 675.76 C 522.28 682.98 501.71 682.98 483.07 675.76 C 458.95 666.41 421.36 654.26 376.57 648.09 C 297.68 637.21 289.79 756.92 338.44 777.32 C 387.09 797.73 477.81 768.17 511.99 772.26 C 546.17 768.18 636.90 797.73 685.54 777.32 C 734.20 756.91 726.31 637.20 647.42 648.09 Z" fill="none" node-id="427" stroke="none" target-height="160.52997" target-width="444.40994" target-x="289.79" target-y="637.2"></path></svg>